<svg xmlns="http://www.w3.org/2000/svg" style="display: none;">
    <symbol id="tick" viewBox="0 0 15 15">
        <g fill="none">
            <path d="M1 7l4.5 4.5L14 3" stroke="currentColor"></path>
        </g>
    </symbol>
    <symbol id="loading" viewBox="0 0 24 24">
        <path class="opacity-75" fill="currentColor" d="M4 12a8 8 0 018-8V0C5.373 0 0 5.373 0 12h4zm2 5.291A7.962 7.962 0 014 12H0c0 3.042 1.135 5.824 3 7.938l3-2.647z"></path>
    </symbol>
    <symbol id="error" viewBox="0 0 24 24">
        <path d="M16.143 2l5.857 5.858v8.284l-5.857 5.858h-8.286l-5.857-5.858v-8.284l5.857-5.858h8.286zm.828-2h-9.942l-7.029 7.029v9.941l7.029 7.03h9.941l7.03-7.029v-9.942l-7.029-7.029zm-6.471 6h3l-1 8h-1l-1-8zm1.5 12.25c-.69 0-1.25-.56-1.25-1.25s.56-1.25 1.25-1.25 1.25.56 1.25 1.25-.56 1.25-1.25 1.25z" />
    </symbol>
    <symbol id="plus" viewBox="0 0 24 24">
        <path d="M11 11v-11h1v11h11v1h-11v11h-1v-11h-11v-1h11z" />
    </symbol>
    <symbol id="trash" viewBox="0 0 24 24">
        <path d="M3 6v18h18v-18h-18zm5 14c0 .552-.448 1-1 1s-1-.448-1-1v-10c0-.552.448-1 1-1s1 .448 1 1v10zm5 0c0 .552-.448 1-1 1s-1-.448-1-1v-10c0-.552.448-1 1-1s1 .448 1 1v10zm5 0c0 .552-.448 1-1 1s-1-.448-1-1v-10c0-.552.448-1 1-1s1 .448 1 1v10zm4-18v2h-20v-2h5.711c.9 0 1.631-1.099 1.631-2h5.315c0 .901.73 2 1.631 2h5.712z" />
    </symbol>
</svg>